<svg width="1280" height="832" viewBox="0 0 1280 832" fill="none" xmlns="http://www.w3.org/2000/svg">
<g clip-path="url(#clip0_410_1894)">
<rect width="1280" height="832" fill="#00447B"/>
<path d="M710 114C710 303.986 536.286 458 322 458C107.714 458 -66 303.986 -66 114C-66 -75.9859 107.714 -230 322 -230C536.286 -230 710 -75.9859 710 114Z" fill="#FFE3AA"/>
<ellipse cx="312.5" cy="752.5" rx="331.5" ry="213.5" fill="white"/>
<path d="M740 53C740 238.015 570.092 388 360.5 388C150.908 388 -19 238.015 -19 53C-19 -132.015 150.908 -282 360.5 -282C570.092 -282 740 -132.015 740 53Z" fill="#FFCB17"/>
<path d="M673 69.5C673 245.403 516.3 388 323 388C129.7 388 -27 245.403 -27 69.5C-27 -106.403 129.7 -249 323 -249C516.3 -249 673 -106.403 673 69.5Z" fill="white"/>
</g>
<rect x="0.5" y="0.5" width="1279" height="831" stroke="black"/>
<defs>
<clipPath id="clip0_410_1894">
<rect width="1280" height="832" fill="white"/>
</clipPath>
</defs>
</svg>
